<svg version="1.0" xmlns="http://www.w3.org/2000/svg" width="100%" height="100%" viewBox="0 0 577 487" preserveAspectRatio="xMidYMid meet">
  <g transform="translate(-760,1280) scale(0.1, -0.1)" stroke="none" fill="#000000">
    <path fill="#007BFF" d="M7530 10370 l0 -2440 425 0 425 0 0 1085 c0 597 2 1085 5 1085 3 0
            20 -17 38 -37 19 -21 132 -148 253 -282 120 -135 316 -353 434 -486
            118 -133 296 -331 395 -441 99 -109 238 -264 310 -344 71 -80 218
            -243 325 -363 l195 -217 583 0 c320 0 582 3 582 8 0 4 -37 48 -82
            97 -312 342 -586 643 -709 780 -79 88 -175 194 -214 235 -76 82 -291
            318 -449 494 -55 61 -150 165 -210 232 -61 66 -160 175 -219 242 l-108
            122 103 0 c436 0 777 91 1018 271 331 248 505 621 504 1084 -1 175
            -19 293 -69 442 -65 195 -160 350 -298 486 -223 221 -464 332 -812
            372 -109 13 -318 15 -1277 15 l-1148 0 0 -2440z m2378 1607 c249 -67
            392 -254 392 -514 0 -261 -161 -454 -422 -507 -66 -14 -181 -16 -788
            -16 l-710 0 0 530 0 531 733 -4 c647 -3 739 -5 795 -20z"/>
    <path fill="#6C757D" d="M12308 12213 l-198 -3 0 -194 0 -193 -62 -13 c-97 -20 -236 -72
            -318 -120 -101 -58 -224 -183 -272 -275 -64 -123 -83 -208 -83 -375
            0 -124 3 -156 23 -220 83 -265 261 -424 612 -546 l95 -34 3 -345
            c1 -190 -2 -345 -6 -345 -19 0 -105 65 -137 104 -53 65 -102 153
            -116 207 -9 32 -18 49 -28 49 -31 0 -543 -89 -549 -95 -10 -10 25
            -132 63 -218 48 -112 91 -179 164 -259 128 -139 284 -225 513 -282
            l93 -24 3 -231 2 -231 233 2 232 3 3 225 c2 124 5 226 7 228 2 2 36
            10 76 19 281 58 510 224 620 449 59 122 81 217 81 359 2 331 -146
            562 -450 709 -40 18 -132 53 -206 77 l-135 44 -1 312 c0 171 4 314
            8 317 14 8 78 -50 110 -101 16 -26 38 -72 48 -100 10 -29 21 -53 25
            -53 3 0 126 20 273 45 148 25 273 45 278 45 30 0 -45 201 -113 305
            -117 180 -285 290 -531 347 l-98 23 0 198 0 197 -32 -2 c-18 -2
            -122 -4 -230 -5z m-198 -1123 l0 -260 -39 20 c-50 25 -104 80 -127
            128 -44 92 -24 219 46 291 30 31 97 77 118 81 1 0 2 -117 2 -260z
            m576 -1058 c73 -59 107 -122 112 -208 5 -80 -19 -151 -72 -211 -34
            -38 -126 -103 -148 -103 -5 0 -8 133 -8 294 l0 295 29 -10 c15 -5
            54 -31 87 -57z"/>
  </g>
  <g>
    <text x="402" y="400" font-size="250" font-weight="700" font-family="sans-serif" fill="#28a745">_</text>
  </g>
</svg>
